<svg xmlns="http://www.w3.org/2000/svg" width="491.85448" height="299.99998" viewBox="0 0 491.85448 299.99998"><path d="M100,114.28569h50.00049v8.67315H110.20361v22.44965h37.75586v8.67419H110.20361v31.63153H100Zm107.75684,34.18377c0,11.12213,0,15.919.50976,22.44965h-.40771c-2.34766-4.0827-6.02051-10.20465-13.77637-21.22461L169.4917,114.28569H158.77686v71.42852h10.20361V151.53147c0-11.12316,0-15.91894-.50977-22.44964h.40772c2.34668,4.08166,6.021,10.20367,13.77539,21.22467l24.59228,35.40771h10.71436V114.28569H207.75684Zm73.19921,28.5716H239.11963l40.30615-54.08222v-8.67315H227.89453v8.67315h39.28613L226.874,177.04106v8.67315h54.082ZM391.8457,200h-100V100h100Zm-10.89209-21.74731H302.73779v6.24994h78.21582Z"/></svg>